<mxfile host="65bd71144e">
    <diagram id="kj-Y_orn4XiNJi2F5IpZ" name="Page-1">
        <mxGraphModel dx="809" dy="511" grid="1" gridSize="8" guides="1" tooltips="1" connect="1" arrows="1" fold="1" page="1" pageScale="1" pageWidth="1169" pageHeight="827" background="#ffffff" math="0" shadow="0">
            <root>
                <MiscDiagram modelType="MiscDiagram" lastModifiedUserId="dbush@ibm.com" description="" lastModified="2022-01-25T15:52:26Z" _id="miscdiagram_BkNc6foVF" label="Automation Workstream Service on OCP" id="0">
                    <mxCell/>
                </MiscDiagram>
                <mxCell id="1" parent="0"/>
                <UserObject placeholders="1" label="42 Gb RWX Storage" Icon-Name="block-storage--alt" id="miscdiagram_BkNc6foVF_23dyQikT9zy6">
                    <mxCell style="shape=mxgraph.ibm2mondrian.base;shapeType=ln;shapeLayout=collapsed;colorFamily=cyan;colorBackground=noColor:noColor;html=1;whiteSpace=wrap;metaEdit=1;strokeWidth=1;collapsible=0;recursiveResize=0;expand=0;fontFamily=IBM Plex Sans;fontColor=#000000;fontSize=14;image=;verticalAlign=top;align=center;spacing=0;spacingLeft=0;spacingRight=0;spacingTop=0;spacingBottom=0;verticalLabelPosition=bottom;labelPosition=center;positionText=bottom;container=1;labelWidth=71;" parent="1" vertex="1">
                        <mxGeometry x="123" y="624" width="48" height="48" as="geometry"/>
                    </mxCell>
                </UserObject>
                <mxCell id="miscdiagram_BkNc6foVF_33dyQikTMfHL" style="edgeStyle=orthogonalEdgeStyle;rounded=1;orthogonalLoop=1;jettySize=auto;html=1;jumpStyle=arc;jumpSize=8;entryX=0.5;entryY=1;entryDx=0;entryDy=0;entryPerimeter=0;" parent="1" source="miscdiagram_BkNc6foVF_23dyQikT9zy6" target="miscdiagram_BkNc6foVF_103dyQikT4vjw" edge="1">
                    <mxGeometry relative="1" as="geometry"/>
                </mxCell>
                <UserObject placeholders="1" label="42 Gb RWX Storage" Icon-Name="block-storage--alt" _id="userobject_3apVcswQOzd" id="miscdiagram_BkNc6foVF_43dyQikTegkR">
                    <mxCell style="shape=mxgraph.ibm2mondrian.base;shapeType=ln;shapeLayout=collapsed;colorFamily=cyan;colorBackground=noColor:noColor;html=1;whiteSpace=wrap;metaEdit=1;strokeWidth=1;collapsible=0;recursiveResize=0;expand=0;fontFamily=IBM Plex Sans;fontColor=#000000;fontSize=14;image=;verticalAlign=top;align=center;spacing=0;spacingLeft=0;spacingRight=0;spacingTop=0;spacingBottom=0;verticalLabelPosition=bottom;labelPosition=center;positionText=bottom;container=1;labelWidth=71;" parent="1" vertex="1">
                        <mxGeometry x="364" y="624" width="48" height="48" as="geometry"/>
                    </mxCell>
                </UserObject>
                <UserObject placeholders="1" label="42 Gb RWX Storage" Icon-Name="block-storage--alt" _id="userobject_3apVdxSEO6I" id="miscdiagram_BkNc6foVF_53dyQikTgtKP">
                    <mxCell style="shape=mxgraph.ibm2mondrian.base;shapeType=ln;shapeLayout=collapsed;colorFamily=cyan;colorBackground=noColor:noColor;html=1;whiteSpace=wrap;metaEdit=1;strokeWidth=1;collapsible=0;recursiveResize=0;expand=0;fontFamily=IBM Plex Sans;fontColor=#000000;fontSize=14;image=;verticalAlign=top;align=center;spacing=0;spacingLeft=0;spacingRight=0;spacingTop=0;spacingBottom=0;verticalLabelPosition=bottom;labelPosition=center;positionText=bottom;container=1;labelWidth=71;" parent="1" vertex="1">
                        <mxGeometry x="644" y="624" width="48" height="48" as="geometry"/>
                    </mxCell>
                </UserObject>
                <mxCell id="miscdiagram_BkNc6foVF_63dyQikTABBM" style="edgeStyle=orthogonalEdgeStyle;rounded=1;orthogonalLoop=1;jettySize=auto;html=1;jumpStyle=arc;jumpSize=8;entryX=0.5;entryY=1;entryDx=0;entryDy=0;entryPerimeter=0;" parent="1" source="miscdiagram_BkNc6foVF_43dyQikTegkR" target="miscdiagram_BkNc6foVF_173dyQikTkaoR" edge="1">
                    <mxGeometry relative="1" as="geometry"/>
                </mxCell>
                <mxCell id="miscdiagram_BkNc6foVF_73dyQikTCFV3" style="edgeStyle=orthogonalEdgeStyle;rounded=1;orthogonalLoop=1;jettySize=auto;html=1;jumpStyle=arc;jumpSize=8;entryX=0.5;entryY=1;entryDx=0;entryDy=0;entryPerimeter=0;" parent="1" source="miscdiagram_BkNc6foVF_53dyQikTgtKP" target="miscdiagram_BkNc6foVF_253dyQikTaDvy" edge="1">
                    <mxGeometry relative="1" as="geometry"/>
                </mxCell>
                <UserObject placeholders="1" label="&lt;span style=&quot;font-family: &amp;#34;ibm plex sans&amp;#34;&quot;&gt;OpenShift 4.7-4.8 Non-Prod Cluster&lt;/span&gt;" Icon-Name="logo--openshift" id="miscdiagram_BkNc6foVF_83dyQikTRczW">
                    <mxCell style="shape=mxgraph.ibm2mondrian.base;shapeType=pg;shapeLayout=expanded;colorFamily=green;colorBackground=noColor:noColor;strokeWidth=1;html=1;whiteSpace=wrap;metaEdit=1;collapsible=0;recursiveResize=0;expand=0;fontFamily=IBM Plex Sans SmBld;fontColor=#000000;fontSize=14;image=;verticalAlign=top;align=left;spacing=0;spacingLeft=16;spacingRight=16;spacingTop=0;spacingBottom=0;container=1" parent="1" vertex="1">
                        <mxGeometry x="16" y="16" width="504" height="568" as="geometry"/>
                    </mxCell>
                </UserObject>
                <UserObject placeholders="1" label="CP4BA Dev Namespace" Icon-Name="border--none" id="miscdiagram_BkNc6foVF_93dyQikTvGVV">
                    <mxCell style="shape=mxgraph.ibm2mondrian.base;shapeType=lg;shapeLayout=expanded;colorFamily=green;colorBackground=noColor:noColor;html=1;whiteSpace=wrap;metaEdit=1;strokeWidth=1;collapsible=0;recursiveResize=0;expand=0;fontFamily=IBM Plex Sans;fontColor=#000000;fontSize=14;image=;verticalAlign=top;align=left;spacing=0;spacingLeft=12;spacingRight=16;spacingTop=0;spacingBottom=0;container=1" parent="miscdiagram_BkNc6foVF_83dyQikTRczW" vertex="1">
                        <mxGeometry x="24" y="48" width="224" height="504" as="geometry"/>
                    </mxCell>
                </UserObject>
                <UserObject placeholders="1" label="Worker Node" Icon-Name="cloud-services" id="miscdiagram_BkNc6foVF_103dyQikT4vjw">
                    <mxCell style="shape=mxgraph.ibm2mondrian.base;shapeType=lg;shapeLayout=expanded;colorFamily=blue;colorBackground=noColor:noColor;html=1;whiteSpace=wrap;metaEdit=1;strokeWidth=1;collapsible=0;recursiveResize=0;expand=0;fontFamily=IBM Plex Sans;fontColor=#000000;fontSize=14;image=;verticalAlign=top;align=left;spacing=0;spacingLeft=12;spacingRight=16;spacingTop=0;spacingBottom=0;container=1" parent="miscdiagram_BkNc6foVF_93dyQikTvGVV" vertex="1">
                        <mxGeometry x="16" y="48" width="184" height="440" as="geometry"/>
                    </mxCell>
                </UserObject>
                <UserObject placeholders="1" label="GraphQL" Icon-Name="cube" _id="userobject_32Uk0eSDdvN" id="miscdiagram_BkNc6foVF_113dyQikTCGEi">
                    <mxCell style="shape=mxgraph.ibm2mondrian.base;shapeType=lg;shapeLayout=expanded;colorFamily=green;colorBackground=noColor:noColor;html=1;whiteSpace=wrap;metaEdit=1;strokeWidth=1;collapsible=0;recursiveResize=0;expand=0;fontFamily=IBM Plex Sans;fontColor=#000000;fontSize=14;image=;verticalAlign=middle;align=left;spacing=0;spacingLeft=12;spacingRight=16;spacingTop=0;spacingBottom=0;container=1" parent="miscdiagram_BkNc6foVF_103dyQikT4vjw" vertex="1">
                        <mxGeometry x="16" y="270" width="144" height="64" as="geometry"/>
                    </mxCell>
                </UserObject>
                <UserObject placeholders="1" label="Workflow Server" Icon-Name="cube" _id="userobject_32UdcglKTdE" id="miscdiagram_BkNc6foVF_123dyQikTcMEC">
                    <mxCell style="shape=mxgraph.ibm2mondrian.base;shapeType=lg;shapeLayout=expanded;colorFamily=green;colorBackground=noColor:noColor;html=1;whiteSpace=wrap;metaEdit=1;strokeWidth=1;collapsible=0;recursiveResize=0;expand=0;fontFamily=IBM Plex Sans;fontColor=#000000;fontSize=14;image=;verticalAlign=middle;align=left;spacing=0;spacingLeft=12;spacingRight=16;spacingTop=0;spacingBottom=0;container=1" parent="miscdiagram_BkNc6foVF_103dyQikT4vjw" vertex="1">
                        <mxGeometry x="16" y="48" width="144" height="64" as="geometry"/>
                    </mxCell>
                </UserObject>
                <UserObject placeholders="1" label="Content Platform Engine" Icon-Name="cube" _id="userobject_332VFZwwt8S" id="miscdiagram_BkNc6foVF_133dyQikTm8sJ">
                    <mxCell style="shape=mxgraph.ibm2mondrian.base;shapeType=lg;shapeLayout=expanded;colorFamily=green;colorBackground=noColor:noColor;html=1;whiteSpace=wrap;metaEdit=1;strokeWidth=1;collapsible=0;recursiveResize=0;expand=0;fontFamily=IBM Plex Sans;fontColor=#000000;fontSize=14;image=;verticalAlign=middle;align=left;spacing=0;spacingLeft=12;spacingRight=16;spacingTop=0;spacingBottom=0;container=1" parent="miscdiagram_BkNc6foVF_103dyQikT4vjw" vertex="1">
                        <mxGeometry x="16" y="192" width="144" height="64" as="geometry"/>
                    </mxCell>
                </UserObject>
                <UserObject placeholders="1" label="Content Management Services" Icon-Name="cube" _id="userobject_332VUZF6YwH" id="miscdiagram_BkNc6foVF_143dyQikTo4D8">
                    <mxCell style="shape=mxgraph.ibm2mondrian.base;shapeType=lg;shapeLayout=expanded;colorFamily=green;colorBackground=noColor:noColor;html=1;whiteSpace=wrap;metaEdit=1;strokeWidth=1;collapsible=0;recursiveResize=0;expand=0;fontFamily=IBM Plex Sans;fontColor=#000000;fontSize=14;image=;verticalAlign=middle;align=left;spacing=0;spacingLeft=12;spacingRight=16;spacingTop=0;spacingBottom=0;container=1" parent="miscdiagram_BkNc6foVF_103dyQikT4vjw" vertex="1">
                        <mxGeometry x="16" y="344" width="144" height="64" as="geometry"/>
                    </mxCell>
                </UserObject>
                <UserObject placeholders="1" label="Process Federation Server (opt)" Icon-Name="cube" _id="userobject_3apTetU41YI" id="miscdiagram_BkNc6foVF_153dyQikTz5Rn">
                    <mxCell style="shape=mxgraph.ibm2mondrian.base;shapeType=lg;shapeLayout=expanded;colorFamily=green;colorBackground=noColor:noColor;html=1;whiteSpace=wrap;metaEdit=1;strokeWidth=1;collapsible=0;recursiveResize=0;expand=0;fontFamily=IBM Plex Sans;fontColor=#000000;fontSize=14;image=;verticalAlign=middle;align=left;spacing=0;spacingLeft=12;spacingRight=16;spacingTop=0;spacingBottom=0;container=1" parent="miscdiagram_BkNc6foVF_103dyQikT4vjw" vertex="1">
                        <mxGeometry x="16" y="120" width="144" height="64" as="geometry"/>
                    </mxCell>
                </UserObject>
                <UserObject placeholders="1" label="CP4BA Test/QA/Stage Namespace" Icon-Name="border--none" _id="userobject_3apTLojS05y" id="miscdiagram_BkNc6foVF_163dyQikTHzUO">
                    <mxCell style="shape=mxgraph.ibm2mondrian.base;shapeType=lg;shapeLayout=expanded;colorFamily=green;colorBackground=noColor:noColor;html=1;whiteSpace=wrap;metaEdit=1;strokeWidth=1;collapsible=0;recursiveResize=0;expand=0;fontFamily=IBM Plex Sans;fontColor=#000000;fontSize=14;image=;verticalAlign=top;align=left;spacing=0;spacingLeft=12;spacingRight=16;spacingTop=0;spacingBottom=0;container=1" parent="miscdiagram_BkNc6foVF_83dyQikTRczW" vertex="1">
                        <mxGeometry x="264" y="48" width="224" height="504" as="geometry"/>
                    </mxCell>
                </UserObject>
                <UserObject placeholders="1" label="Worker Node" Icon-Name="cloud-services" _id="userobject_3apTLoj7BUK" id="miscdiagram_BkNc6foVF_173dyQikTkaoR">
                    <mxCell style="shape=mxgraph.ibm2mondrian.base;shapeType=lg;shapeLayout=expanded;colorFamily=blue;colorBackground=noColor:noColor;html=1;whiteSpace=wrap;metaEdit=1;strokeWidth=1;collapsible=0;recursiveResize=0;expand=0;fontFamily=IBM Plex Sans;fontColor=#000000;fontSize=14;image=;verticalAlign=top;align=left;spacing=0;spacingLeft=12;spacingRight=16;spacingTop=0;spacingBottom=0;container=1" parent="miscdiagram_BkNc6foVF_163dyQikTHzUO" vertex="1">
                        <mxGeometry x="16" y="48" width="184" height="440" as="geometry"/>
                    </mxCell>
                </UserObject>
                <UserObject placeholders="1" label="GraphQL" Icon-Name="cube" _id="userobject_32Uk0eSDdvN" id="miscdiagram_BkNc6foVF_183dyQikTj2fg">
                    <mxCell style="shape=mxgraph.ibm2mondrian.base;shapeType=lg;shapeLayout=expanded;colorFamily=green;colorBackground=noColor:noColor;html=1;whiteSpace=wrap;metaEdit=1;strokeWidth=1;collapsible=0;recursiveResize=0;expand=0;fontFamily=IBM Plex Sans;fontColor=#000000;fontSize=14;image=;verticalAlign=middle;align=left;spacing=0;spacingLeft=12;spacingRight=16;spacingTop=0;spacingBottom=0;container=1" parent="miscdiagram_BkNc6foVF_173dyQikTkaoR" vertex="1">
                        <mxGeometry x="16" y="270" width="144" height="64" as="geometry"/>
                    </mxCell>
                </UserObject>
                <UserObject placeholders="1" label="Workflow Server" Icon-Name="cube" _id="userobject_32UdcglKTdE" id="miscdiagram_BkNc6foVF_193dyQikTSk8L">
                    <mxCell style="shape=mxgraph.ibm2mondrian.base;shapeType=lg;shapeLayout=expanded;colorFamily=green;colorBackground=noColor:noColor;html=1;whiteSpace=wrap;metaEdit=1;strokeWidth=1;collapsible=0;recursiveResize=0;expand=0;fontFamily=IBM Plex Sans;fontColor=#000000;fontSize=14;image=;verticalAlign=middle;align=left;spacing=0;spacingLeft=12;spacingRight=16;spacingTop=0;spacingBottom=0;container=1" parent="miscdiagram_BkNc6foVF_173dyQikTkaoR" vertex="1">
                        <mxGeometry x="16" y="48" width="144" height="64" as="geometry"/>
                    </mxCell>
                </UserObject>
                <UserObject placeholders="1" label="Content Platform Engine" Icon-Name="cube" _id="userobject_332VFZwwt8S" id="miscdiagram_BkNc6foVF_203dyQikTcrxG">
                    <mxCell style="shape=mxgraph.ibm2mondrian.base;shapeType=lg;shapeLayout=expanded;colorFamily=green;colorBackground=noColor:noColor;html=1;whiteSpace=wrap;metaEdit=1;strokeWidth=1;collapsible=0;recursiveResize=0;expand=0;fontFamily=IBM Plex Sans;fontColor=#000000;fontSize=14;image=;verticalAlign=middle;align=left;spacing=0;spacingLeft=12;spacingRight=16;spacingTop=0;spacingBottom=0;container=1" parent="miscdiagram_BkNc6foVF_173dyQikTkaoR" vertex="1">
                        <mxGeometry x="16" y="192" width="144" height="64" as="geometry"/>
                    </mxCell>
                </UserObject>
                <UserObject placeholders="1" label="Content Management Services" Icon-Name="cube" _id="userobject_332VUZF6YwH" id="miscdiagram_BkNc6foVF_213dyQikTAhp3">
                    <mxCell style="shape=mxgraph.ibm2mondrian.base;shapeType=lg;shapeLayout=expanded;colorFamily=green;colorBackground=noColor:noColor;html=1;whiteSpace=wrap;metaEdit=1;strokeWidth=1;collapsible=0;recursiveResize=0;expand=0;fontFamily=IBM Plex Sans;fontColor=#000000;fontSize=14;image=;verticalAlign=middle;align=left;spacing=0;spacingLeft=12;spacingRight=16;spacingTop=0;spacingBottom=0;container=1" parent="miscdiagram_BkNc6foVF_173dyQikTkaoR" vertex="1">
                        <mxGeometry x="16" y="344" width="144" height="64" as="geometry"/>
                    </mxCell>
                </UserObject>
                <UserObject placeholders="1" label="Process Federation Server (opt)" Icon-Name="cube" _id="userobject_3apTetU41YI" id="miscdiagram_BkNc6foVF_223dyQikT9ykJ">
                    <mxCell style="shape=mxgraph.ibm2mondrian.base;shapeType=lg;shapeLayout=expanded;colorFamily=green;colorBackground=noColor:noColor;html=1;whiteSpace=wrap;metaEdit=1;strokeWidth=1;collapsible=0;recursiveResize=0;expand=0;fontFamily=IBM Plex Sans;fontColor=#000000;fontSize=14;image=;verticalAlign=middle;align=left;spacing=0;spacingLeft=12;spacingRight=16;spacingTop=0;spacingBottom=0;container=1" parent="miscdiagram_BkNc6foVF_173dyQikTkaoR" vertex="1">
                        <mxGeometry x="16" y="120" width="144" height="64" as="geometry"/>
                    </mxCell>
                </UserObject>
                <UserObject placeholders="1" label="&lt;span style=&quot;font-family: &amp;#34;ibm plex sans&amp;#34;&quot;&gt;OpenShift 4.7-4.8 Non-Prod Cluster&lt;/span&gt;" Icon-Name="logo--openshift" id="miscdiagram_BkNc6foVF_233dyQikTlsaf">
                    <mxCell style="shape=mxgraph.ibm2mondrian.base;shapeType=pg;shapeLayout=expanded;colorFamily=green;colorBackground=noColor:noColor;strokeWidth=1;html=1;whiteSpace=wrap;metaEdit=1;collapsible=0;recursiveResize=0;expand=0;fontFamily=IBM Plex Sans SmBld;fontColor=#000000;fontSize=14;image=;verticalAlign=top;align=left;spacing=0;spacingLeft=16;spacingRight=16;spacingTop=0;spacingBottom=0;container=1" parent="1" vertex="1">
                        <mxGeometry x="536" y="16" width="263" height="568" as="geometry"/>
                    </mxCell>
                </UserObject>
                <UserObject placeholders="1" label="CP4BA Namespace" Icon-Name="border--none" _id="userobject_3apTXl9RitD" id="miscdiagram_BkNc6foVF_243dyQikTIAQC">
                    <mxCell style="shape=mxgraph.ibm2mondrian.base;shapeType=lg;shapeLayout=expanded;colorFamily=green;colorBackground=noColor:noColor;html=1;whiteSpace=wrap;metaEdit=1;strokeWidth=1;collapsible=0;recursiveResize=0;expand=0;fontFamily=IBM Plex Sans;fontColor=#000000;fontSize=14;image=;verticalAlign=top;align=left;spacing=0;spacingLeft=12;spacingRight=16;spacingTop=0;spacingBottom=0;container=1" parent="miscdiagram_BkNc6foVF_233dyQikTlsaf" vertex="1">
                        <mxGeometry x="24" y="48" width="224" height="504" as="geometry"/>
                    </mxCell>
                </UserObject>
                <UserObject placeholders="1" label="Worker Node" Icon-Name="cloud-services" id="miscdiagram_BkNc6foVF_253dyQikTaDvy">
                    <mxCell style="shape=mxgraph.ibm2mondrian.base;shapeType=lg;shapeLayout=expanded;colorFamily=blue;colorBackground=noColor:noColor;html=1;whiteSpace=wrap;metaEdit=1;strokeWidth=1;collapsible=0;recursiveResize=0;expand=0;fontFamily=IBM Plex Sans;fontColor=#000000;fontSize=14;image=;verticalAlign=top;align=left;spacing=0;spacingLeft=12;spacingRight=16;spacingTop=0;spacingBottom=0;container=1" parent="miscdiagram_BkNc6foVF_243dyQikTIAQC" vertex="1">
                        <mxGeometry x="16" y="48" width="184" height="440" as="geometry"/>
                    </mxCell>
                </UserObject>
                <UserObject placeholders="1" label="GraphQL" Icon-Name="cube" _id="userobject_32Uk0eSDdvN" id="miscdiagram_BkNc6foVF_263dyQikTd9kU">
                    <mxCell style="shape=mxgraph.ibm2mondrian.base;shapeType=lg;shapeLayout=expanded;colorFamily=green;colorBackground=noColor:noColor;html=1;whiteSpace=wrap;metaEdit=1;strokeWidth=1;collapsible=0;recursiveResize=0;expand=0;fontFamily=IBM Plex Sans;fontColor=#000000;fontSize=14;image=;verticalAlign=middle;align=left;spacing=0;spacingLeft=12;spacingRight=16;spacingTop=0;spacingBottom=0;container=1" parent="miscdiagram_BkNc6foVF_253dyQikTaDvy" vertex="1">
                        <mxGeometry x="16" y="270" width="144" height="64" as="geometry"/>
                    </mxCell>
                </UserObject>
                <UserObject placeholders="1" label="Workflow Server" Icon-Name="cube" _id="userobject_32UdcglKTdE" id="miscdiagram_BkNc6foVF_273dyQikTa22v">
                    <mxCell style="shape=mxgraph.ibm2mondrian.base;shapeType=lg;shapeLayout=expanded;colorFamily=green;colorBackground=noColor:noColor;html=1;whiteSpace=wrap;metaEdit=1;strokeWidth=1;collapsible=0;recursiveResize=0;expand=0;fontFamily=IBM Plex Sans;fontColor=#000000;fontSize=14;image=;verticalAlign=middle;align=left;spacing=0;spacingLeft=12;spacingRight=16;spacingTop=0;spacingBottom=0;container=1" parent="miscdiagram_BkNc6foVF_253dyQikTaDvy" vertex="1">
                        <mxGeometry x="16" y="48" width="144" height="64" as="geometry"/>
                    </mxCell>
                </UserObject>
                <UserObject placeholders="1" label="Content Platform Engine" Icon-Name="cube" _id="userobject_332VFZwwt8S" id="miscdiagram_BkNc6foVF_283dyQikTG0nK">
                    <mxCell style="shape=mxgraph.ibm2mondrian.base;shapeType=lg;shapeLayout=expanded;colorFamily=green;colorBackground=noColor:noColor;html=1;whiteSpace=wrap;metaEdit=1;strokeWidth=1;collapsible=0;recursiveResize=0;expand=0;fontFamily=IBM Plex Sans;fontColor=#000000;fontSize=14;image=;verticalAlign=middle;align=left;spacing=0;spacingLeft=12;spacingRight=16;spacingTop=0;spacingBottom=0;container=1" parent="miscdiagram_BkNc6foVF_253dyQikTaDvy" vertex="1">
                        <mxGeometry x="16" y="192" width="144" height="64" as="geometry"/>
                    </mxCell>
                </UserObject>
                <UserObject placeholders="1" label="Content Management Services" Icon-Name="cube" _id="userobject_332VUZF6YwH" id="miscdiagram_BkNc6foVF_293dyQikTSJ7U">
                    <mxCell style="shape=mxgraph.ibm2mondrian.base;shapeType=lg;shapeLayout=expanded;colorFamily=green;colorBackground=noColor:noColor;html=1;whiteSpace=wrap;metaEdit=1;strokeWidth=1;collapsible=0;recursiveResize=0;expand=0;fontFamily=IBM Plex Sans;fontColor=#000000;fontSize=14;image=;verticalAlign=middle;align=left;spacing=0;spacingLeft=12;spacingRight=16;spacingTop=0;spacingBottom=0;container=1" parent="miscdiagram_BkNc6foVF_253dyQikTaDvy" vertex="1">
                        <mxGeometry x="16" y="344" width="144" height="64" as="geometry"/>
                    </mxCell>
                </UserObject>
                <UserObject placeholders="1" label="Process Federation Server (opt)" Icon-Name="cube" _id="userobject_3apTetU41YI" id="miscdiagram_BkNc6foVF_303dyQikT6r1n">
                    <mxCell style="shape=mxgraph.ibm2mondrian.base;shapeType=lg;shapeLayout=expanded;colorFamily=green;colorBackground=noColor:noColor;html=1;whiteSpace=wrap;metaEdit=1;strokeWidth=1;collapsible=0;recursiveResize=0;expand=0;fontFamily=IBM Plex Sans;fontColor=#000000;fontSize=14;image=;verticalAlign=middle;align=left;spacing=0;spacingLeft=12;spacingRight=16;spacingTop=0;spacingBottom=0;container=1" parent="miscdiagram_BkNc6foVF_253dyQikTaDvy" vertex="1">
                        <mxGeometry x="16" y="120" width="144" height="64" as="geometry"/>
                    </mxCell>
                </UserObject>
            </root>
        </mxGraphModel>
    </diagram>
</mxfile>